<svg xmlns="http://www.w3.org/2000/svg" width="87" height="34" viewBox="0 0 120 50" xmlns:xlink="http://www.w3.org/1999/xlink" class=""><defs><path id="a" d="M.2.2h18.4v28.5H.2z"></path><path id="c" d="M.2.1h9.2v28.5H.2z"></path><path id="e" d="M0 .1h17.7v11.6H0z"></path></defs><g fill="none" fill-rule="evenodd"><path d="M100.9 15.7c.6 0 1.2-.2 1.6-.7.5-.4.7-1 .7-1.7 0-.6-.2-1.2-.7-1.6-.4-.5-1-.7-1.6-.7-.6 0-1.2.2-1.6.7-.5.4-.7 1-.7 1.6 0 1.4 1 2.4 2.3 2.4M42.8 32.3a4.7 4.7 0 01-4.7-4.7c0-2.6 2.1-4.8 4.7-4.8 2.5 0 4.6 2.2 4.6 4.8 0 2.6-2.1 4.7-4.6 4.7m0-14.2a9 9 0 00-4.7 1.3V8.6h-4.6v19c0 5.2 4.2 9.5 9.3 9.5 5 0 9.2-4.3 9.2-9.5 0-5.3-4.1-9.5-9.2-9.5M86 32.3a4.7 4.7 0 01-4.6-4.7c0-2.6 2-4.8 4.6-4.8 2.6 0 4.6 2.2 4.6 4.8 0 2.6-2 4.7-4.6 4.7m0-14.2a9 9 0 00-4.6 1.3V8.6H77v19c0 5.2 4.1 9.5 9.2 9.5s9.2-4.3 9.2-9.5c0-5.3-4-9.5-9.2-9.5" fill="#FFB11A" fill-rule="nonzero"></path><g transform="translate(55 18)"><mask id="b" fill="#fff"><use xlink:href="#a"></use></mask><path d="M18.6.2H14v9.5a4.7 4.7 0 01-5.8 4.6c-2-.6-3.4-2.5-3.4-4.6V.2H.2v9.5a9.6 9.6 0 004.6 8.2 9 9 0 009.2 0v1.3c0 2.6-2 4.7-4.6 4.7v4.8c5 0 9.2-4.3 9.2-9.5V.2z" fill="#FFB11A" mask="url(#b)"></path></g><g transform="translate(106.3 8.4)"><mask id="d" fill="#fff"><use xlink:href="#c"></use></mask><path fill="#FFB11A" mask="url(#d)" d="M2.5.1v9.5H.2v4.8h2.3v14.2H7V14.4h2.3V9.6H7V.1z"></path></g><path d="M3.6 33.7l.4 1 1 2c-.5-1.8-1.2-3.6-1.9-5.3l.5 2.3m-.5-2.4L5.3 37l.7.9-3-7.7.1 1" fill="#FFB11A" fill-rule="nonzero"></path><path d="M3 30.1c1.2 2.7 2.3 5.4 3.2 8l.6.7A138 138 0 003 29.3v.8" fill="#FFB11A"></path><path d="M3 29.2c1.5 3.2 2.8 6.5 4 9.8l.6.5a142 142 0 00-4.5-11v.7" fill="#FFB11A"></path><path d="M3 28.5c1.8 3.7 3.4 7.4 4.9 11.2l.5.4C6.8 35.9 5 31.9 3 27.9v.6" fill="#FFB11A"></path><path d="M3.1 27.9c2.2 4.2 4 8.4 5.6 12.4l.5.2a152 152 0 00-6-13.2v.6" fill="#FFB11A"></path><path d="M3.2 27.3c2.3 4.4 4.4 8.9 6.3 13.4l.4.3C8 36 5.8 31.4 3.3 26.8v.5" fill="#FFB11A"></path><path d="M3.3 26.8c2.6 4.6 5 9.4 7 14.3l.4.2c-2.1-5.1-4.6-10.1-7.2-15l-.2.5" fill="#FFB11A"></path><path d="M3.5 26.3c2.8 5 5.3 10 7.6 15.1l.4.2C9 36 6.4 30.7 3.5 25.9v.4" fill="#FFB11A"></path><path d="M3.6 25.9c3 5 5.8 10.4 8.3 15.8l.4.1C9.6 36 6.7 30.5 3.7 25.4l-.1.4" fill="#FFB11A"></path><path d="M12.7 41.9h.4c-2.9-6-6-11.6-9.2-16.9l-.2.4a191 191 0 019 16.5" fill="#FFB11A"></path><path d="M13.5 42h.4A201.8 201.8 0 004 24.8v.2c3.5 5.5 6.7 11.2 9.6 17z" fill="#FFB11A" fill-rule="nonzero"></path><path d="M14.3 42.1h.4A214 214 0 004.2 24.3l-.2.4C7.7 30.3 11.2 36 14.3 42" fill="#FFB11A" fill-rule="nonzero"></path><path d="M15.1 42.1h.4A230.6 230.6 0 004.4 24l-.2.3c4.3 6.4 8 12.5 11 17.8" fill="#FFB11A" fill-rule="nonzero"></path><path d="M16 42.1h.3c-3.7-6.3-7.6-12.5-11.8-18.5l-.1.4c4 5.8 8 11.9 11.5 18.1" fill="#FFB11A" fill-rule="nonzero"></path><path d="M17 42A274 274 0 004.8 23.3l-.2.3c4.3 6 8.4 12.1 12.2 18.4h.4" fill="#FFB11A"></path><path d="M17.9 41.8c-4.1-6.4-8.5-12.7-13-18.8l-.2.3c4.5 6 8.8 12.2 12.8 18.6h.4" fill="#FFB11A"></path><path d="M18.6 41.6c-4.3-6.5-8.8-12.8-13.5-18.9l-.2.3c5.3 6.8 9.9 13.4 13.4 18.7l.3-.1" fill="#FFB11A"></path><path d="M19 41.4h.4l-.2-.3c-4.5-6.4-9.1-12.6-14-18.7l-.1.3c4.8 6.1 9.5 12.4 14 18.7m.7-.3h.3l-.3-.6C15 34.3 10.4 28 5.5 22.2l-.2.2c5 6.1 9.8 12.4 14.5 18.7" fill="#FFB11A"></path><path d="M20.8 40.6A559 559 0 005.7 22l-.2.2c5.1 6.2 10.2 12.4 15 18.7.2 0 .3-.1.3-.2" fill="#FFB11A"></path><path d="M21.5 40.2A711.6 711.6 0 006 21.6l-.2.3c5.3 6 10.5 12.2 15.6 18.5l.2-.2m.7-.5A991.3 991.3 0 006.1 21.4l-.2.2c6 6.6 11.4 13 16 18.3.1 0 .2 0 .3-.2m.7-.5l-16.6-18-.2.2c6.1 6.5 11.8 12.8 16.5 18l.3-.2m.6-.5a4914 4914 0 00-17-17.8l-.2.2 17 17.8s0-.2.2-.2m.5-.6L6.8 20.7l-.3.2 17.3 17.4.2-.2m.6-.7c-6-5.6-11.8-11.3-17.6-17l-.2.2c6.4 6.3 12.4 12.2 17.6 17l.2-.2m.4-.6c-6-5.5-11.9-11-17.7-16.6l-.3.2C13 26 18.8 31.6 25 37l.1-.2m.5-.7L7.5 20l-.2.2c5.9 5.5 12 10.9 18 16.1l.2-.2m.4-.8c-6.2-5-12.2-10.2-18.1-15.5l-.3.2c6 5.3 12 10.5 18.2 15.6l.2-.3" fill="#FFB11A" fill-rule="nonzero"></path><path d="M26 34.9l.2-.3-.4-.4c-6-4.7-12-9.6-17.8-14.6l-.2.2c6 5.2 12 10.2 18.3 15" fill="#FFB11A"></path><path d="M26.4 34.1l.1-.3-.2-.1c-6.1-4.6-12.1-9.4-18-14.3l-.3.2c6 5 12 9.7 18.1 14.3l.3.2" fill="#FFB11A"></path><path d="M26.7 33c-5.1-3.7-11.5-8.4-18.1-13.8l-.3.2c6 4.8 12 9.5 18.4 14V33" fill="#FFB11A"></path><path d="M27 32.2C20.7 28 14.6 23.6 8.8 19l-.3.2c6 4.7 12 9.1 18.3 13.3v-.3" fill="#FFB11A"></path><path d="M27 31.4c-6-4-12-8.2-17.8-12.6l-.3.2A265 265 0 0027 31.7v-.3" fill="#FFB11A"></path><path d="M27.2 30.6c-6-3.8-12-7.7-17.7-12l-.3.2a242 242 0 0018 12.1v-.3" fill="#FFB11A"></path><path d="M27.2 30.1v-.4c-6-3.5-11.7-7.2-17.3-11.2l-.4.1c5.5 4 11.4 7.8 17.7 11.5" fill="#FFB11A"></path><path d="M27.2 29.3v-.4a207 207 0 01-17-10.6l-.3.2c5.3 3.7 11.1 7.3 17.3 10.8" fill="#FFB11A" fill-rule="nonzero"></path><path d="M27.1 28.5V28c-5.7-3-11.2-6.4-16.5-10l-.4.2c5.3 3.5 11 7 17 10.2" fill="#FFB11A"></path><path d="M27 27.6v-.4c-5.6-2.8-11-5.9-16-9.2l-.4.1A182 182 0 0027 27.6" fill="#FFB11A" fill-rule="nonzero"></path><path d="M26.8 26.4c-5.3-2.6-10.4-5.4-15.4-8.6l-.4.2c4.9 3 10.2 6 15.9 8.8l-.1-.4" fill="#FFB11A"></path><path d="M26.5 25.6c-5-2.4-10-5-14.7-7.9l-.4.1c4.7 3 9.8 5.7 15.2 8.2v-.4" fill="#FFB11A"></path><path d="M26.2 24.8c-4.8-2.2-9.4-4.6-14-7.2l-.4.1c4.7 2.8 9.6 5.3 14.6 7.5l-.2-.4" fill="#FFB11A"></path><path d="M25.8 24c-4.4-2-8.8-4.2-13-6.5h-.5c4.4 2.6 9 4.9 13.7 6.9l-.2-.5" fill="#FFB11A"></path><path d="M25.4 23.1c-4.1-1.7-8.1-3.6-12-5.7h-.6c4.2 2.3 8.5 4.4 12.8 6.2l-.2-.5" fill="#FFB11A"></path><path d="M24.8 22.3c-3.7-1.5-7.3-3.2-10.9-5h-.6c3.9 2 7.8 3.9 11.9 5.5l-.4-.5" fill="#FFB11A"></path><path d="M24.2 21.4c-3.3-1.2-6.4-2.6-9.5-4.2H14c3.4 1.8 7 3.4 10.6 4.8l-.4-.6" fill="#FFB11A"></path><path d="M23.6 20.9l-.3-.3c-2.6-1-5.2-2.2-7.8-3.4h-.8a129.5 129.5 0 009 3.7" fill="#FFB11A"></path><path d="M22.2 19.6l-5.6-2.3h-1l7.4 3-.8-.7M20 18.3l-1-.4c-.7-.3-1.4-.4-2.2-.5l5.2 2c-.7-.5-1.3-.8-2-1.1" fill="#FFB11A" fill-rule="nonzero"></path><path d="M26.6 11.5l-.4-1-1-2c.5 1.8 1.2 3.5 1.9 5.3l-.5-2.3m.5 2.4l-2.3-5.8-.6-.8 3 7.7-.1-1.1" fill="#FFC556" fill-rule="nonzero"></path><path d="M27.2 15c-1.2-2.6-2.3-5.3-3.3-8l-.5-.6c1.1 3.2 2.4 6.4 3.8 9.5V15" fill="#FFC556"></path><path d="M27.2 16A143 143 0 0123 6l-.5-.4c1.3 3.7 2.9 7.3 4.5 11v-.8" fill="#FFC556"></path><path d="M27.1 16.6c-1.7-3.6-3.4-7.4-4.8-11.2a12 12 0 00-.5-.3c1.6 4.1 3.3 8.2 5.3 12.2v-.7" fill="#FFC556"></path><path d="M27 17.3c-2-4-3.8-8.2-5.5-12.4l-.5-.3c1.8 4.5 3.8 9 6 13.2v-.5" fill="#FFC556"></path><path d="M27 17.9c-2.3-4.4-4.4-9-6.3-13.5l-.5-.2c2 5 4.3 9.7 6.6 14.2l.2-.5" fill="#FFC556"></path><path d="M26.8 18.4c-2.5-4.7-4.8-9.5-7-14.4l-.3-.2C21.6 9 24 14 26.7 18.8l.1-.4" fill="#FFC556"></path><path d="M26.7 18.9c-2.8-5-5.3-10-7.6-15.2l-.4-.1a172 172 0 007.9 15.7l.1-.4" fill="#FFC556"></path><path d="M26.6 19.3c-3-5.1-5.8-10.4-8.3-15.9h-.4c2.7 5.7 5.5 11.2 8.6 16.3v-.4" fill="#FFC556"></path><path d="M17.5 3.3l-.4-.1c2.9 6 6 11.7 9.2 17l.2-.5a191 191 0 01-9-16.4" fill="#FFC556"></path><path d="M16.7 3.1h-.4c3.1 6.1 6.4 12 9.8 17.4l.2-.4c-3.5-5.5-6.7-11.2-9.6-17" fill="#FFC556"></path><path d="M15.9 3h-.4c3.3 6.3 6.8 12.3 10.5 17.8l.2-.3C22.3 14.8 19 9 15.8 3" fill="#FFC556"></path><path d="M15 3h-.3c3.5 6.5 7.3 12.6 11.1 18.2l.2-.3C21.7 14.4 18 8.2 15 3z" fill="#FFC556" fill-rule="nonzero"></path><path d="M14.2 3H14c3.6 6.4 7.6 12.6 11.8 18.5l.1-.3c-4-5.9-8-12-11.6-18.2" fill="#FFC556" fill-rule="nonzero"></path><path d="M13.1 3.2a274 274 0 0012.4 18.6l.2-.3c-4.4-6-8.4-12-12.3-18.4h-.3" fill="#FFC556"></path><path d="M12.3 3.3c4.1 6.5 8.4 12.7 13 18.8l.2-.3c-4.5-6-8.8-12.2-12.8-18.5h-.4" fill="#FFC556"></path><path d="M11.5 3.6a338 338 0 0013.6 18.8l.2-.2C20.6 16 16 9.8 11.9 3.5h-.4" fill="#FFC556"></path><path d="M11.1 3.7l-.3.1.2.3c3.7 5.3 8.4 11.8 14 18.6l.1-.3c-4.8-6-9.4-12.2-13.9-18.5l-.1-.2" fill="#FFC556"></path><path d="M10.3 4l-.3.1.4.6C15 10.9 19.8 17 24.7 23l.2-.3C20 16.7 15 10.4 10.3 4" fill="#FFC556"></path><path d="M9.3 4.5c4.4 5.6 9.5 12 15.2 18.8l.2-.3a556.4 556.4 0 01-15-18.6l-.4.1" fill="#FFC556"></path><path d="M8.6 5l15.7 18.5.2-.2A711 711 0 019 4.8l-.3.1m-.6.5l16 18.4.3-.3a994 994 0 01-16-18.3c-.2 0-.3.1-.3.2m-.7.5L24 24l.2-.2-16.5-18-.3.1m-.6.6l17 17.8c0-.1 0-.2.2-.3L6.9 6.3l-.2.2m-.6.6l17.3 17.4.2-.2L6.4 6.8l-.3.3m-.5.6l17.6 17 .2-.2-17.6-17-.2.2m-.5.7c6 5.4 12 11 17.8 16.5l.3-.2A981.9 981.9 0 005.3 8.1l-.2.3m-.4.7l18 16 .2-.1C17 19.5 11 14 5 8.8l-.2.3" fill="#FFC556" fill-rule="nonzero"></path><path d="M4.3 9.8c6.1 5 12.2 10.3 18.1 15.6l.3-.2c-6-5.4-12-10.6-18.2-15.7l-.2.3" fill="#FFC556"></path><path d="M4.1 10.3l-.1.3.4.3c5 4 11.2 9 17.7 14.7l.3-.2A446 446 0 004.1 10.3m-.3.7l-.1.4.2.1c6.1 4.6 12.1 9.3 18 14.3l.2-.2c-5.8-5-11.9-9.8-18-14.4l-.3-.2" fill="#FFC556" fill-rule="nonzero"></path><path d="M3.4 12.1C8.6 15.8 15 20.5 21.6 26l.3-.2c-6-4.9-12.1-9.5-18.4-14v.3" fill="#FFC556"></path><path d="M3.2 13a294 294 0 0118 13.2l.4-.2c-6-4.7-12-9.2-18.3-13.4v.4" fill="#FFC556"></path><path d="M3.1 13.8c6.1 4 12 8.1 17.9 12.5l.3-.1c-5.9-4.5-12-8.8-18.1-12.8v.4" fill="#FFC556"></path><path d="M3 14.6c6 3.7 12 7.7 17.7 12l.3-.3C15.2 22 9.2 18 3 14.3v.3" fill="#FFC556"></path><g transform="translate(3 15)"><mask id="f" fill="#fff"><use xlink:href="#e"></use></mask><path d="M0 .1v.4c6 3.4 11.7 7.2 17.3 11.2l.4-.1C12.2 7.6 6.3 3.8 0 0" fill="#FFC556" mask="url(#f)"></path></g><path d="M3 15.9v.4a207 207 0 0117 10.5 11.8 11.8 0 00.3-.1C15 22.9 9.1 19.3 3 15.9z" fill="#FFC556" fill-rule="nonzero"></path><path d="M3 16.7l.1.4c5.7 3 11.2 6.3 16.5 10l.4-.2c-5.3-3.6-11-7-17-10.2" fill="#FFC556" fill-rule="nonzero"></path><path d="M3.2 17.5v.4c5.5 2.8 10.9 6 16 9.3l.4-.2C14.5 23.7 9 20.5 3.2 17.5" fill="#FFC556"></path><path d="M3.4 18.7c4.8 2.4 10 5.2 15.4 8.6l.4-.1C14.2 24 9 21 3.3 18.3l.1.4" fill="#FFC556" fill-rule="nonzero"></path><path d="M3.7 19.6c5 2.3 10 5 14.7 7.8h.4c-4.7-3-9.8-5.7-15.3-8.3l.2.5" fill="#FFC556"></path><path d="M4 20.4c4.7 2.2 9.4 4.5 14 7.2l.4-.2c-4.7-2.7-9.6-5.2-14.6-7.4l.2.4" fill="#FFC556"></path><path d="M4.4 21.2c4.4 2 8.8 4.1 13 6.5l.5-.1c-4.5-2.5-9-4.8-13.8-6.8l.3.4" fill="#FFC556"></path><path d="M4.8 22c3.9 1.7 8 3.6 12 5.8l.6-.1c-4.2-2.3-8.5-4.3-12.9-6.1l.3.4" fill="#FFC556"></path><path d="M5.4 22.9a139 139 0 0110.8 5l.6-.1C13 25.8 9 24 5 22.4l.4.5" fill="#FFC556"></path><path d="M6 23.7c3.1 1.2 6.3 2.6 9.5 4.2h.7c-3.5-1.8-7-3.3-10.6-4.7l.4.5" fill="#FFC556"></path><path d="M6.5 24.3l.3.3c2.6 1 5.2 2 7.9 3.3h.8a129.5 129.5 0 00-9-3.6" fill="#FFC556"></path><path d="M8 25.5l5.6 2.3 1 .1-7.5-3 .9.6m2.3 1.4l1 .4 2.1.5-5-2c.5.4 1.2.8 1.9 1" fill="#FFC556" fill-rule="nonzero"></path><path fill="#FFB11A" d="M98.2 36.8h4.6v-19h-4.6z"></path></g></svg>